#!OML:ASF G:\JayActor3\Patient Classification 1\Patient 1\Session 6\male.ASF
:FULLY-SPECIFIED
:DEGREES
1136
root -7.62581 16.2064 -7.67181 -2.56069 -33.706 2.59796
lowerback -6.39524 -3.84609 -0.540018
upperback -0.559874 -5.13718 1.48757
thorax 3.18207 -2.57433 1.3643
lowerneck -0.96025 -3.7926 -0.647804
upperneck 2.05734 -5.03907 -0.580532
head 0.783084 -2.5304 -0.119106
rclavicle 4.59193e-014 -3.18055e-015
rhumerus -49.6896 -7.8676 -70.1678
rradius 21.2099
rwrist 5.85671
rhand -25.7228 -11.4913
rfingers 7.12502
rthumb 0.813469 -41.4695
lclavicle 4.59193e-014 -3.18055e-015
lhumerus -21.5673 1.66709 75.1554
lradius 49.2459
lwrist 31.0124
lhand -19.2067 9.28026
lfingers 7.12502
lthumb 7.10562 39.141
rfemur -33.6096 20.4296 16.9263
rtibia 29.7698
rfoot -11.179 -10.6994
rtoes -13.3387
lfemur 23.674 14.2288 -23.5614
ltibia -4.45278e-014
lfoot -7.09344 -11.6669
ltoes -7.08997
1137
root -7.68627 16.2047 -7.57832 -2.39724 -33.577 2.44111
lowerback -6.45805 -3.95909 -0.41069
upperback -0.636176 -5.30341 1.68271
thorax 3.15048 -2.65664 1.47575
lowerneck -0.949337 -3.49769 -0.29419
upperneck 1.98428 -4.6423 -1.10343
head 0.737893 -2.33446 -0.328977
rclavicle 4.92986e-014 -6.36111e-015
rhumerus -49.8844 -8.15847 -69.3963
rradius 21.0421
rwrist 5.98256
rhand -25.5937 -11.5531
rfingers 7.12502
rthumb 0.938195 -41.5308
lclavicle 4.92986e-014 -6.36111e-015
lhumerus -21.9471 1.44704 75.5735
lradius 49.3754
lwrist 30.8601
lhand -18.8563 9.27764
lfingers 7.12502
lthumb 7.44388 39.1267
rfemur -33.2525 20.1031 17.2437
rtibia 29.8968
rfoot -10.7799 -11.0167
rtoes -12.8275
lfemur 23.9864 13.9507 -23.4079
ltibia 4.13472e-014
lfoot -6.86951 -11.5149
ltoes -7.61143
1138
root -7.74763 16.2057 -7.48383 -2.24381 -33.4796 2.31747
lowerback -6.52046 -4.06339 -0.286847
upperback -0.731148 -5.45679 1.85961
thorax 3.09802 -2.73251 1.57356
lowerneck -0.9236 -3.20578 0.0549828
upperneck 1.93613 -4.25035 -1.61107
head 0.702882 -2.14079 -0.535173
rclavicle 8.94531e-016 -8.74653e-015
rhumerus -50.0876 -8.4241 -68.6657
rradius 20.8942
rwrist 6.10124
rhand -25.484 -11.6039
rfingers 7.12502
rthumb 1.04409 -41.5811
lclavicle 8.94531e-016 -8.74653e-015
lhumerus -22.3653 1.23305 75.9962
lradius 49.4398
lwrist 30.6693
lhand -18.5486 9.25204
lfingers 7.12502
lthumb 7.74087 39.0904
rfemur -32.9563 19.798 17.5358
rtibia 30.1596
rfoot -10.3811 -11.4592
rtoes -12.1671
lfemur 24.2904 13.7053 -23.2839
ltibia -9.54166e-015
lfoot -6.63395 -11.3534
ltoes -8.1962
1139
root -7.80984 16.2099 -7.38871 -2.08929 -33.4264 2.21156
lowerback -6.57642 -4.15659 -0.160724
upperback -0.846228 -5.5947 2.0243
thorax 3.01947 -2.80061 1.66046
lowerneck -0.878737 -2.91878 0.395311
upperneck 1.90993 -3.86536 -2.09532
head 0.67602 -1.95037 -0.734935
rclavicle 6.88789e-014 -2.38542e-014
rhumerus -50.2903 -8.66034 -67.9756
rradius 20.7586
rwrist 6.21872
rhand -25.4114 -11.6419
rfingers 7.12502
rthumb 1.1142 -41.6188
lclavicle 6.88789e-014 -2.38542e-014
lhumerus -22.8178 1.03676 76.422
lradius 49.4236
lwrist 30.4338
lhand -18.2774 9.19537
lfingers 7.12502
lthumb 8.00265 39.0239
rfemur -32.7305 19.5404 17.8056
rtibia 30.499
rfoot -9.97941 -12.0085
rtoes -11.4082
lfemur 24.5826 13.5035 -23.1745
ltibia -5.08889e-014
lfoot -6.37261 -11.1833
ltoes -8.81061
1140
root -7.87241 16.2172 -7.29328 -1.92375 -33.4187 2.10706
lowerback -6.64246 -4.23658 -0.0305428
upperback -0.965099 -5.71525 2.18875
thorax 2.9418 -2.86015 1.746
lowerneck -0.827662 -2.6436 0.706287
upperneck 1.89493 -3.49618 -2.54312
head 0.655902 -1.76762 -0.921042
rclavicle -6.25178e-014 -7.15625e-015
rhumerus -50.4576 -8.8715 -67.3212
rradius 20.6294
rwrist 6.32824
rhand -25.371 -11.6789
rfingers 7.12502
rthumb 1.15321 -41.6555
lclavicle -6.25178e-014 -7.15625e-015
lhumerus -23.2655 0.876484 76.8686
lradius 49.3069
lwrist 30.1596
lhand -18.0336 9.10611
lfingers 7.12502
lthumb 8.23788 38.9255
rfemur -32.5707 19.338 18.0613
rtibia 30.8573
rfoot -9.57459 -12.6088
rtoes -10.6714
lfemur 24.8597 13.3474 -23.0704
ltibia 1.90833e-014
lfoot -6.09805 -10.9918
ltoes -9.58253
1141
root -7.93498 16.2271 -7.19785 -1.73491 -33.4521 1.9809
lowerback -6.71977 -4.30652 0.108751
upperback -1.0818 -5.82375 2.36674
thorax 2.87288 -2.91384 1.84059
lowerneck -0.782176 -2.38075 0.997455
upperneck 1.89176 -3.14319 -2.97322
head 0.643556 -1.59295 -1.10079
rclavicle -9.74045e-014 3.97569e-015
rhumerus -50.5701 -9.05551 -66.6966
rradius 20.5015
rwrist 6.43931
rhand -25.3536 -11.719
rfingers 7.12502
rthumb 1.17003 -41.6956
lclavicle -9.74045e-014 3.97569e-015
lhumerus -23.6977 0.765873 77.3436
lradius 49.0813
lwrist 29.8503
lhand -17.8014 8.9921
lfingers 7.12502
lthumb 8.46196 38.8026
rfemur -32.4576 19.1874 18.3228
rtibia 31.1923
rfoot -9.19665 -13.139
rtoes -9.95995
lfemur 25.1222 13.232 -22.9516
ltibia 3.18055e-014
lfoot -5.79722 -10.7767
ltoes -10.4668
1142
root -7.99729 16.2391 -7.1027 -1.50732 -33.5086 1.82475
lowerback -6.81063 -4.37288 0.265348
upperback -1.20323 -5.92939 2.55799
thorax 2.80633 -2.96619 1.93868
lowerneck -0.75973 -2.12694 1.28297
upperneck 1.92143 -2.8015 -3.39493
head 0.647832 -1.42424 -1.27972
rclavicle -4.67144e-015 -1.90833e-014
rhumerus -50.628 -9.22044 -66.1006
rradius 20.3716
rwrist 6.55755
rhand -25.347 -11.7646
rfingers 7.12502
rthumb 1.17646 -41.7411
lclavicle -4.67144e-015 -1.90833e-014
lhumerus -24.1199 0.706722 77.8409
lradius 48.7507
lwrist 29.5267
lhand -17.5986 8.88869
lfingers 7.12502
lthumb 8.65771 38.6912
rfemur -32.3787 19.0719 18.5969
rtibia 31.4854
rfoot -8.86619 -13.5038
rtoes -9.31331
lfemur 25.3562 13.1393 -22.8159
ltibia -6.36111e-014
lfoot -5.45986 -10.5402
ltoes -11.433
